<svg xmlns="http://www.w3.org/2000/svg" width="20" height="16" fill="none"><path fill="#1E2833" d="M19.556 1.881a8.4 8.4 0 0 1-2.31.633A4 4 0 0 0 19.009.298a8 8 0 0 1-2.542.97A4.008 4.008 0 0 0 9.532 4.01c0 .319.027.624.093.915A11.35 11.35 0 0 1 1.362.731a4.04 4.04 0 0 0-.55 2.026c0 1.389.716 2.62 1.782 3.332a3.96 3.96 0 0 1-1.812-.494v.044a4.03 4.03 0 0 0 3.212 3.94c-.326.089-.682.132-1.05.132-.258 0-.517-.015-.76-.069.52 1.588 1.994 2.755 3.746 2.793a8.06 8.06 0 0 1-4.97 1.71c-.33 0-.645-.015-.96-.055a11.3 11.3 0 0 0 6.15 1.799c7.378 0 11.41-6.111 11.41-11.408q0-.265-.014-.519a8 8 0 0 0 2.01-2.081" style="fill:#1e2833;fill:color(display-p3 .1176 .1569 .2);fill-opacity:1"/></svg>